<svg width="500" height="500" viewBox="0 0 500 500" fill="none" xmlns="http://www.w3.org/2000/svg">
<path d="M262.133 427.432C255.366 427.875 248.731 427.92 241.643 427.899C240.751 427.035 240.717 426.102 241.206 425.452C245.36 419.941 244.845 413.548 244.843 407.213C244.822 349.556 244.832 291.898 244.826 234.241C244.826 231.743 245.012 229.223 244.584 226.755C243.846 222.497 241.558 219.382 237.368 217.954C233.366 216.59 229.719 217.368 226.857 220.492C224.259 223.327 221.091 224.379 217.43 224.127C203.903 223.196 189.305 234.991 186.248 248.3C185.412 251.94 183.387 254.467 180.32 256.552C167.328 265.38 160.452 277.922 159.406 293.407C158.899 300.923 160.6 308.37 164.173 315.117C166.509 319.528 166.547 323.342 163.865 327.73C160.042 333.984 157.184 340.686 156.054 348.114C153.33 366.018 158.659 381.444 170.535 394.573C177.094 401.824 185.508 406.823 195.069 409.287C199.44 410.413 203.146 412.212 206.207 415.467C209.251 418.704 214.155 419.787 216.224 424.533C199.015 423.084 182.952 417.322 167.195 410.687C148.556 402.839 131.735 391.961 115.96 378.765C115.919 375.742 118.234 374.843 120.17 373.646C122.702 372.081 125.586 371.138 127.962 369.291C128.077 369.202 128.115 369.014 128.459 368.352C124.196 369.057 121.117 371.515 117.7 373.116C115.773 374.019 114.038 375.508 111.38 374.537C94.8697 360.016 81.497 343.358 70.3863 324.311C72.0191 320.198 68.287 320.002 66.5747 318.131C57.3323 299.794 49.9058 281.119 46.1799 261.215C34.3078 197.791 47.4491 139.994 87.4997 89.3111C122.495 45.0252 168.645 18.4757 224.823 12.2199C303.438 3.46549 368.069 30.7791 417.134 92.8982C442.502 125.017 456.065 162.197 459.185 203.124C462.289 243.857 454.122 282.171 434.92 318.559C434.386 320.147 433.315 320.671 432.19 320.946C429.964 321.489 430.392 322.902 430.934 324.747C419.825 344.447 405.713 361.355 388.643 376.202C388.106 376.244 387.884 376.169 387.367 375.898C384.49 371.505 380.328 369.749 375.807 368.54C378.666 371.698 383.082 372.563 386.36 375.708C386.721 376.166 386.848 376.363 387.089 376.893C370.884 392.191 352.178 403.386 331.842 411.903C320.052 416.841 307.94 420.886 295.385 423.457C293.614 423.82 291.781 423.879 289.555 424.053C288.674 423.189 288.783 422.159 289.414 421.73C295.363 417.683 299.522 411.442 307.226 409.461C342.4 400.418 358.804 359.459 339.831 328.466C337.12 324.037 336.917 320.196 339.05 315.381C349.059 292.791 342.528 270.14 322.243 256.075C319.173 253.946 317.563 251.078 316.552 247.59C313.468 236.951 306.607 229.777 296.301 225.752C292.787 224.38 289.191 224.077 285.512 224.152C282.022 224.223 279.222 223.149 276.552 220.647C269.843 214.358 260.579 217.494 258.573 226.497C258.098 228.63 258.178 230.806 258.178 232.969C258.168 292.62 258.262 352.271 258.024 411.921C258.001 417.642 260.869 422.006 262.133 427.432Z" fill="#FAD02D"/>
<path d="M216.509 425.112C210.878 421.814 205.68 418.537 201.51 413.891C200.585 412.861 199.37 412.415 198.028 412.1C157.977 402.703 140.549 358.961 163.28 324.624C164.888 322.195 164.587 320.739 163.35 318.451C150.974 295.558 158.207 267.946 180.159 254.078C182.096 252.854 183.326 251.534 183.882 249.177C187.898 232.128 200.697 222.009 218.461 221.883C221.479 221.862 223.497 221.227 225.622 218.747C231.383 212.028 243.019 214.708 246.036 223.143C246.894 225.541 246.972 228.022 246.971 230.535C246.958 291.692 246.936 352.85 247.006 414.008C247.012 419.312 245.816 423.872 241.375 427.571C235.722 430.71 230.271 429.128 224.846 427.711C222.147 427.005 219.502 426.094 216.509 425.112Z" fill="#FFFDF4"/>
<path d="M262.408 427.944C257.667 424.066 256.187 419.299 256.196 413.608C256.287 352.654 256.27 291.699 256.227 230.745C256.222 224.336 257.389 218.774 264.166 216.121C269.899 213.877 274.485 214.865 278.437 219.679C279.746 221.274 280.977 221.834 283.009 221.879C303.076 222.321 313.679 230.41 319.278 249.506C319.895 251.609 321.127 252.826 322.903 253.948C344.943 267.878 352.3 295.431 339.92 318.193C338.395 320.997 338.729 322.713 340.397 325.247C360.908 356.409 347.136 398.054 312.136 410.135C305.918 412.281 300.17 414.474 295.56 419.346C293.906 421.095 291.41 422.048 289.215 423.696C282.974 426.64 276.583 428.441 269.969 429.418C267.451 429.79 265.079 429.151 262.408 427.944Z" fill="#FFFDF5"/>
<path d="M225.019 460.974C222.769 457.542 224.094 456.007 227.442 455.994C243.589 455.934 259.736 455.974 275.883 455.954C277.772 455.951 279.381 456.567 279.514 458.541C279.676 460.948 277.764 461.573 275.796 461.552C258.999 461.374 242.195 462.126 225.019 460.974Z" fill="#EBF3FF"/>
<path d="M250 450.596C242.516 450.593 235.533 450.628 228.55 450.567C226.429 450.548 223.764 450.771 223.864 447.577C223.953 444.749 226.369 444.968 228.365 444.966C243.828 444.955 259.291 444.961 274.754 444.959C276.958 444.958 279.536 444.812 279.466 447.895C279.404 450.619 276.938 450.566 274.942 450.575C266.795 450.614 258.647 450.594 250 450.596Z" fill="#EBF3FF"/>
<path d="M226.612 434.192C242.541 434.127 258.023 434.094 273.504 434.134C275.864 434.14 279.297 433.34 279.391 436.913C279.486 440.532 276.079 439.864 273.695 439.872C261.543 439.914 249.391 439.893 237.238 439.891C233.909 439.89 230.579 439.92 227.251 439.849C225.688 439.815 224.209 439.382 223.869 437.544C223.535 435.736 224.545 434.753 226.612 434.192Z" fill="#EAF2FF"/>
<path d="M392.812 460.179C394.122 461.488 395.11 462.634 396.258 463.587C397.85 464.909 398.142 465.989 396.415 467.539C394.998 468.81 394.062 469.574 392.356 467.835C384.662 459.99 376.846 452.265 369.095 444.476C367.635 443.01 367.065 441.284 368.787 439.695C370.439 438.172 371.901 439.314 373.118 440.521C379.619 446.972 386.085 453.457 392.812 460.179Z" fill="#F7FAFF"/>
<path d="M107.66 459.684C113.313 454.033 118.702 448.622 124.119 443.241C125.54 441.83 127.078 440.092 129.138 442.166C131.216 444.257 129.391 445.781 128.005 447.178C121.457 453.776 114.864 460.33 108.301 466.914C106.747 468.472 105.017 470.462 102.863 468.471C100.551 466.336 102.783 464.648 104.242 463.108C105.269 462.024 106.35 460.991 107.66 459.684Z" fill="#F1F7FF"/>
<path d="M420.444 395.516C414.564 392.376 408.983 389.463 403.448 386.465C401.738 385.539 399.445 384.56 400.7 382.032C402.093 379.227 404.271 380.562 406.207 381.586C414.116 385.771 422.033 389.942 429.919 394.172C431.648 395.1 433.853 396.109 432.511 398.646C431.229 401.071 429.227 400.171 427.368 399.173C425.178 397.996 422.964 396.863 420.444 395.516Z" fill="#F0F6FF"/>
<path d="M431.433 325.021C429.024 324.73 426.653 324.732 426.95 321.817C427.233 319.036 429.532 319.26 431.516 319.152C432.346 319.107 433.176 319.069 434.422 318.968C441.493 318.98 448.148 319.041 454.804 319.128C456.986 319.156 459.639 319.024 459.679 322.02C459.72 325.097 457.066 324.876 454.878 324.882C447.218 324.903 439.559 324.926 431.433 325.021Z" fill="#EEF4FC"/>
<path d="M65.9647 317.876C67.6231 317.872 68.7839 317.96 69.9461 317.989C71.7649 318.035 73.8424 317.707 74.2542 320.242C74.6612 322.748 72.6925 323.205 70.5424 323.837C63.3961 323.82 56.6178 323.702 49.8396 323.583C48.3501 323.557 46.8521 323.612 45.3733 323.471C43.6242 323.303 41.9578 322.72 42.0727 320.561C42.1844 318.464 43.7511 317.965 45.5939 317.966C52.2185 317.971 58.843 317.951 65.9647 317.876Z" fill="#EEF4FD"/>
<path d="M97.8604 387.877C91.0925 391.436 84.635 394.799 78.2391 398.275C76.3053 399.327 74.9241 400.05 73.5179 397.384C72.1161 394.726 73.9521 394.172 75.494 393.345C82.0564 389.826 88.6537 386.372 95.2317 382.882C96.897 381.998 98.6447 381.075 100.081 383.044C101.837 385.453 99.8687 386.58 97.8604 387.877Z" fill="#F0F6FF"/>
<path d="M110.974 374.664C116.216 371.678 121.349 369.004 126.475 366.318C128.254 365.386 130.269 364.054 131.63 366.513C133.106 369.18 130.907 370.28 128.916 371.331C124.675 373.568 120.468 375.871 115.965 378.335C112.395 379.62 109.887 379.66 110.974 374.664Z" fill="#FCFBF4"/>
<path d="M356.465 431.877C352.788 428.229 349.39 424.831 346.009 421.418C344.467 419.861 342.611 418.139 344.768 415.98C346.754 413.993 348.382 415.776 349.804 417.182C353.339 420.677 356.845 424.202 360.344 427.733C361.544 428.945 362.773 430.349 361.484 432.054C360.089 433.898 358.353 433.498 356.465 431.877Z" fill="#F5F9FF"/>
<path d="M153.523 414.349C154.497 414.34 155.267 414.273 155.733 414.617C157.984 416.279 157.367 418.302 155.571 419.53C152.686 421.503 151.694 426.896 146.821 425.151C144.686 424.386 145.224 422.137 146.733 420.632C148.835 418.536 151.026 416.528 153.523 414.349Z" fill="#EBF3FF"/>
<path d="M388.228 376.223C388.121 376.581 387.913 376.842 387.454 377.164C387.204 377.225 386.921 376.886 386.782 376.715C386.796 376.191 387.047 375.93 387.661 375.847C387.929 375.934 388.128 376.127 388.228 376.223Z" fill="#FAD02D"/>
<path d="M374.429 198.191C376.455 200.209 375.527 201.683 374.11 203.1C366.221 210.987 358.333 218.875 350.45 226.769C349.063 228.159 347.48 229.365 345.721 227.684C343.977 226.017 345.013 224.346 346.414 222.943C354.296 215.049 362.187 207.165 370.071 199.273C371.201 198.142 372.459 197.473 374.429 198.191Z" fill="#FFFCF3"/>
<path d="M118.289 191.727C113.701 187.137 109.37 182.794 105.028 178.462C103.58 177.018 101.88 175.436 103.713 173.411C105.576 171.352 107.277 172.844 108.758 174.326C114.852 180.423 120.956 186.511 127.032 192.626C128.318 193.921 129.937 195.384 128.207 197.27C126.373 199.27 124.63 198.057 123.108 196.553C121.575 195.038 120.062 193.503 118.289 191.727Z" fill="#FFFDF4"/>
<path d="M102.004 317.959C106.481 317.964 110.461 317.984 114.442 317.967C116.127 317.959 117.485 318.533 117.703 320.311C117.963 322.421 116.466 323.449 114.683 323.473C106.561 323.581 98.4355 323.581 90.3135 323.472C88.5303 323.448 87.0351 322.417 87.2973 320.308C87.5185 318.528 88.8784 317.958 90.5623 317.967C94.211 317.985 97.8599 317.964 102.004 317.959Z" fill="#FFFBED"/>
<path d="M371.56 268.798C378.93 265.311 385.994 262.07 393.043 258.797C395.106 257.84 397.394 256.887 398.519 259.654C399.531 262.144 397.231 263.047 395.411 263.884C388.95 266.857 382.442 269.732 376.024 272.794C371.646 274.883 370.841 272.822 371.56 268.798Z" fill="#FFFCF3"/>
<path d="M394.089 324.898C391.453 324.886 389.299 324.934 387.151 324.842C385.49 324.771 384.267 323.929 384.132 322.171C384.011 320.592 385.164 319.455 386.481 319.431C394.575 319.287 402.673 319.274 410.767 319.4C412.107 319.42 413.137 320.598 412.988 322.209C412.789 324.346 411.255 324.852 409.468 324.866C404.504 324.905 399.539 324.891 394.089 324.898Z" fill="#FFFBEC"/>
<path d="M119.916 270.018C115.333 267.943 111.1 266.007 106.871 264.065C104.936 263.176 103.101 262.032 104.322 259.57C105.433 257.329 107.356 258.134 109.082 258.924C115.578 261.899 122.052 264.924 128.577 267.835C130.515 268.699 131.598 269.479 130.512 271.914C129.34 274.541 127.859 273.705 126.144 272.888C124.194 271.959 122.227 271.064 119.916 270.018Z" fill="#FFFCF3"/>
<path d="M82.8647 253.102C78.0023 250.89 73.4761 248.857 68.9887 246.742C67.1599 245.88 65.1147 244.855 66.4873 242.31C67.6348 240.181 69.5022 240.825 71.2567 241.628C77.2696 244.383 83.3037 247.091 89.2957 249.89C91.1963 250.778 93.8144 251.654 92.4316 254.471C91.0673 257.251 88.7771 255.698 86.8335 254.887C85.6124 254.378 84.4212 253.797 82.8647 253.102Z" fill="#FFFCF3"/>
<path d="M387.671 181.672C390.151 179.2 392.357 176.952 394.621 174.765C395.903 173.526 397.395 172.759 399.003 174.173C400.674 175.643 400.026 177.144 398.726 178.452C393.822 183.39 388.906 188.317 383.954 193.206C382.602 194.541 380.978 194.864 379.6 193.322C378.379 191.957 378.944 190.508 380.075 189.337C382.493 186.836 384.969 184.391 387.671 181.672Z" fill="#FFFCF2"/>
<path d="M189.32 167.769C190.396 170.593 194.69 173.238 190.822 175.626C187.339 177.777 186.408 173.293 184.964 171.202C182.133 167.102 179.592 162.801 176.956 158.569C175.836 156.771 174.928 154.792 177.375 153.446C179.585 152.231 180.695 154.08 181.685 155.63C184.191 159.552 186.641 163.51 189.32 167.769Z" fill="#FFFDF4"/>
<path d="M250.178 187.693C247.667 180.48 249.103 173.364 249.015 166.313C248.997 164.818 250.128 163.942 251.681 163.95C253.284 163.958 254.178 164.997 254.3 166.43C254.848 172.878 254.926 179.345 254.263 185.783C254.057 187.786 252.478 188.422 250.178 187.693Z" fill="#FFFCF0"/>
<path d="M151.726 217.287C153.616 219.189 155.258 220.836 156.893 222.491C158.082 223.694 158.55 225.109 157.37 226.475C156.225 227.801 154.605 227.875 153.378 226.682C148.732 222.167 144.151 217.583 139.644 212.929C138.499 211.746 138.42 210.179 139.741 208.931C141.141 207.606 142.516 208.165 143.693 209.309C146.314 211.857 148.884 214.457 151.726 217.287Z" fill="#FFFCF3"/>
<path d="M251.03 135.432C249.679 134.872 248.97 134.131 248.96 133.049C248.902 127.224 248.882 121.397 248.902 115.572C248.908 114.071 249.634 113.046 251.267 112.891C253.083 112.718 254.342 113.595 254.378 115.324C254.501 121.141 254.489 126.964 254.368 132.781C254.334 134.439 253.208 135.492 251.03 135.432Z" fill="#FFFBED"/>
<path d="M301.916 188.849C302.636 187.696 303.183 186.871 303.709 186.032C304.782 184.321 306.247 183.06 308.166 184.403C310.064 185.732 309.312 187.589 308.277 189.233C305.729 193.286 303.218 197.362 300.61 201.376C299.62 202.901 298.453 204.649 296.272 203.153C294.31 201.807 294.851 200.079 295.927 198.386C297.876 195.322 299.8 192.242 301.916 188.849Z" fill="#FFFCF3"/>
<path d="M328.649 155.183C326.682 161.353 322.644 166.022 319.511 171.219C318.668 172.616 317.193 173.146 315.667 172.067C314.161 171.002 314.237 169.489 315.072 168.113C317.808 163.603 320.539 159.082 323.48 154.705C325.009 152.428 326.918 152.277 328.649 155.183Z" fill="#FFFCF2"/>
<path d="M201.066 196.936C199.493 194.381 198.081 192.149 196.725 189.883C195.816 188.364 196.093 186.962 197.58 186.028C199.121 185.06 200.523 185.647 201.425 187.04C204.026 191.057 206.54 195.132 209.055 199.204C209.972 200.689 209.735 202.078 208.327 203.121C206.753 204.287 205.473 203.502 204.517 202.206C203.344 200.615 202.333 198.904 201.066 196.936Z" fill="#FFFCF1"/>
<path d="M387.962 375.548C387.587 375.917 387.275 376.005 386.817 376.371C381.533 375.882 377.698 372.46 373.263 370.339C371.85 369.664 371.586 368.324 372.009 366.936C372.393 365.679 373.543 364.831 374.677 365.277C379.285 367.09 383.788 369.191 387.659 372.335C388.188 372.765 387.904 374.196 387.962 375.548Z" fill="#FFFCF2"/>
<path d="M425.278 250.195C423.05 251.095 421.627 250.578 421.033 248.633C420.507 246.91 421.529 245.798 423.013 245.109C425.861 243.785 428.705 242.447 431.597 241.228C433.097 240.596 434.621 240.736 435.467 242.347C436.486 244.29 435.34 245.489 433.714 246.286C431.043 247.595 428.326 248.81 425.278 250.195Z" fill="#FFFCF2"/>
<path d="M212.127 322.899C208.67 318.562 205.061 314.871 200.818 311.872C199.234 310.752 198.444 309.26 197.587 307.609C196.379 305.283 194.164 304.387 191.644 305.31C189.245 306.188 187.761 308.042 188.106 310.706C188.439 313.266 189.966 315.265 192.695 315.069C195.955 314.836 197.967 316.623 200.116 318.478C206.658 324.123 211.448 331.014 215.152 338.796C219.078 347.042 222.49 355.593 228.634 362.617C231.188 365.537 233.903 368.297 237.378 369.947C240.371 371.367 241.357 373.236 241.307 376.531C241.112 389.36 241.273 402.194 241.207 415.026C241.171 422.264 237.848 424.698 230.667 423.294C222.695 421.735 215.325 419.039 208.844 412.945C212.117 411.915 214.733 410.76 217.999 411.678C220.54 412.391 222.49 410.815 223.533 408.438C224.55 406.12 223.729 404.11 221.879 402.677C219.808 401.072 217.039 400.822 215.527 402.856C211.141 408.762 205.004 407.545 199.578 406.545C165.17 400.204 147.704 359.557 166.385 330.001C167.949 327.527 168.878 326.505 171.269 329.34C175.046 333.817 179.701 337.38 184.828 340.257C186.336 341.104 187.346 342.258 188.249 343.736C189.769 346.224 192.255 346.812 194.788 345.63C196.852 344.667 198.179 342.745 197.707 340.325C197.166 337.557 195.274 335.666 192.42 336.09C189.024 336.594 186.684 334.95 184.213 333.256C160.2 316.793 155.647 285.319 174.598 265.721C181.773 258.302 190.865 254.354 200.948 252.507C202.599 252.204 203.771 252.802 205.142 253.488C207.71 254.772 210.049 254.164 211.737 251.813C213.332 249.59 212.999 247.343 211.138 245.477C209.093 243.427 206.601 243.191 204.381 245.036C200.796 248.015 196.198 247.437 192.155 248.777C189.082 249.795 190.032 247.319 190.631 245.836C194.466 236.345 201.343 229.976 211.374 228.163C224.666 225.762 224.883 227.163 227.835 238.926C230.901 251.14 227.988 262.361 219.96 272.153C218.277 274.206 216.677 276.111 213.557 276.348C210.761 276.56 209.139 278.757 209.28 281.604C209.395 283.93 210.758 285.711 213.161 286.247C215.963 286.871 218.26 285.899 219.119 283.107C219.796 280.907 221.187 279.4 222.602 277.759C235.395 262.918 237.867 246.426 230.131 228.483C228.782 225.355 227.846 222.786 231.866 221.232C235.495 219.829 239.802 221.757 240.806 225.34C241.246 226.909 241.208 228.641 241.209 230.299C241.23 273.628 241.233 316.958 241.208 360.288C241.207 361.732 241.9 363.745 240.607 364.499C238.871 365.511 237.682 363.493 236.474 362.522C231.833 358.789 228.787 353.827 226.092 348.616C221.665 340.054 218.332 330.9 212.127 322.899Z" fill="#FAD02E"/>
<path d="M261.974 321C261.974 290.181 261.963 259.862 261.985 229.543C261.989 223.297 265.021 220.157 270.103 220.968C273.831 221.562 275.156 223.855 273.611 227.25C264.952 246.278 267.731 263.521 281.736 278.951C283.035 280.383 283.557 282.018 284.333 283.651C285.346 285.782 287.322 286.775 289.722 286.339C292.1 285.906 293.57 284.365 293.923 281.984C294.285 279.551 293.244 277.388 290.968 276.79C280.778 274.114 278.264 265.393 275.618 257.12C272.764 248.198 274.241 239.361 278.019 230.857C278.928 228.809 280.246 227.891 282.464 227.52C294.389 225.521 308.843 234.342 312.54 245.933C313.319 248.375 313.011 249.697 310.205 248.639C306.225 247.138 301.692 247.579 298.078 244.568C296.122 242.938 293.546 243.718 291.85 245.761C290.302 247.626 290.272 249.843 291.535 251.818C292.966 254.057 295.423 254.944 297.625 253.64C300.089 252.18 302.324 252.488 304.783 252.993C323.69 256.882 337.567 271.222 339.866 289.272C342.184 307.481 332.05 326.907 316.006 335.273C314.211 336.208 312.518 336.037 310.704 336.016C307.995 335.984 306.3 337.433 305.709 340.007C305.104 342.641 306.247 344.683 308.625 345.698C310.956 346.694 313.118 346.206 314.864 344.083C320.163 337.64 328.351 334.572 333.615 327.941C335.302 325.816 336.128 329.09 336.801 330.139C347.987 347.576 346.798 371.299 333.766 387.695C324.297 399.608 312.24 406.891 296.582 406.938C293.453 406.947 290.415 406.675 288.33 403.44C286.76 401.003 283.98 401.031 281.645 402.533C279.711 403.777 278.764 405.731 279.639 408.149C280.629 410.884 282.786 412.45 285.433 411.654C288.472 410.741 290.898 412.197 294.268 412.415C291.375 416.511 287.444 418.146 283.679 419.98C279.596 421.969 275.158 422.82 270.764 423.702C266.069 424.644 262.16 421.899 262.091 417.194C261.882 402.87 262.008 388.542 261.967 374.216C261.963 372.698 262.547 371.744 263.901 371.077C274.104 366.046 279.559 356.948 284.108 347.163C289.178 336.256 294.239 325.389 304.056 317.694C305.92 316.233 307.631 314.937 310.26 315.092C313.253 315.268 314.817 313.336 315.104 310.481C315.351 308.014 314.07 306.246 311.866 305.391C309.144 304.336 306.65 305.258 305.584 307.841C304.606 310.209 302.854 311.484 301.036 312.898C292.539 319.505 286.804 328.179 282.339 337.822C278.705 345.671 275.44 353.768 269.33 360.145C267.455 362.102 265.402 365.466 262.712 364.424C260.789 363.679 262.032 359.891 262.014 357.482C261.923 345.489 261.973 333.494 261.974 321Z" fill="#FAD02E"/>
<path fill-rule="evenodd" clip-rule="evenodd" d="M231.995 474.899C236.035 490.824 251.383 496.121 265.172 486.201C268.354 483.096 270.513 479.77 271.177 475.701C271.587 473.187 272.506 471.798 275.344 472.135C277.431 472.382 279.661 472.011 279.461 469.224C279.288 466.821 277.189 466.822 275.328 466.823H275.26C259.468 466.826 243.676 466.825 227.884 466.825C225.976 466.825 223.921 466.916 223.839 469.4C223.757 471.87 225.691 472.218 227.675 472.172L227.72 472.171C229.739 472.125 231.282 472.089 231.995 474.899ZM247.864 472.171C245.737 472.161 243.583 472.15 241.39 472.15C238.077 471.842 236.473 472.265 237.767 475.856C239.828 481.574 245.177 485.746 251.311 485.879C257.57 486.014 263.465 481.804 265.469 475.975C266.4 473.265 266.074 472.022 262.8 472.1C257.877 472.219 252.95 472.195 247.864 472.171Z" fill="#FAFCFF"/>
</svg>
